<?xml version="1.0" encoding="utf-8"?>
<!-- Generator: Adobe Illustrator 26.0.3, SVG Export Plug-In . SVG Version: 6.00 Build 0)  -->
<svg version="1.1" xmlns="http://www.w3.org/2000/svg" xmlns:xlink="http://www.w3.org/1999/xlink" x="0px" y="0px"
	 viewBox="0 0 226.8 226.8" style="enable-background:new 0 0 226.8 226.8;" xml:space="preserve">
<style type="text/css">
	.st0{fill:none;}
	.st1{fill:#FFFFFF;}
</style>
<g id="Hintergrund">
	<rect class="st0" width="226.8" height="226.8"/>
</g>
<g id="ROSSMANN_Schmucklogo">
	<g>
		<path class="st1" d="M113.4,42.5c-39.1,0-70.9,31.7-70.9,70.9c0,39.1,31.7,70.9,70.9,70.9s70.9-31.7,70.9-70.9
			C184.3,74.2,152.5,42.5,113.4,42.5z M113.4,55c17.6,0,33.4,7.8,44.1,20.1h-20.4l1.9-3.8c2.1-4.5-5.9-8.4-8.2-3.5l-3.7,7.3H69.3
			C80,62.8,95.8,55,113.4,55z M55,113.4c0-11.2,3.2-21.7,8.6-30.6c0,0,54,2.4,54.5,2.4c0.5,0,1.3,0.2,1.8,1.2
			c0.4,1,5.4,12.7,5.6,13.3c0.3,0.6,0.3,1.8-1.8,1.8c-2.3,0-49,0-52.6,0c-3.6,0-6.5,2.9-6.5,6.5c0,0,0,18.6,0,19.7
			c0,1.6,0.4,3,1.3,4c1.5,1.7,3.9,2.6,4.4,2.8c0.7,0.2,0.8-0.2,0.8-0.6c0-0.4,0-24.6,0-25.1c0-0.7,0.4-1,0.8-1c0.4,0,5.6,0,5.7,0
			s0.8,0,0.3,0.7c-1.8,2.7-2.7,5.2-2.7,9.9c0,7.1,5.3,12,6.9,13.3c0.2,0.1,0.5,0.6,0.2,1.3c-0.3,0.7-5.2,10.2-5.3,10.6
			c-0.3,0.5-0.5,1.1,0.2,1.8l25.6,25.5C75.7,165.8,55,142,55,113.4z M116.3,171.6c0,0-24.6-24.7-26.3-26.4c-0.6-0.6-0.1-1.1,0.1-1.6
			c0.3-0.5,8.9-16.8,9.2-17.5c0.4-0.8,1.2-0.9,1.3-0.9c0.5,0,5.6,0,5.8,0c0.2,0,0.9,0.1,0.5,0.9c-0.4,0.8-8,16.1-8.2,16.4
			c-0.2,0.4-0.1,0.9,0.2,1.3c0.3,0.4,26.6,26.7,26.6,26.7C122.6,171.1,119.5,171.5,116.3,171.6z M135.3,167.5L112,144.1
			c-0.5-0.5-0.3-1.1-0.2-1.4l8.4-16.7c0.4-0.7,1-0.9,1.5-0.9c0,0,14.3,0,14.7,0c0.4,0,0.6,0.4,0.4,0.9l-3.9,8.9
			c-0.1,0.2-0.2,0.8,0.3,1.2l5.4,3.5c0.7,0.4,1.2,0,1.4-0.4c0.2-0.3,5.8-13.3,5.8-13.3c0.4-0.7,0.8-0.8,1.5-0.8h4.9
			c0.2,0,0.8,0.2,0.5,0.9s-4.1,9.3-4.1,9.3c-0.1,0.2-0.2,0.8,0.3,1.2l5.4,3.6c0.7,0.4,1.2,0,1.4-0.4c0.2-0.4,6-13.5,6.4-14.7
			c1.6-3.6,0.9-9.6-6.2-9.6c0,0-7.1,0-8,0c-0.9,0-1.1-0.7-1.1-1s0-27.6,0-27.6c0-1.1,0.6-1.7,1.4-1.8c0.3,0,15-2.3,15-2.3
			c5.5,8.9,8.6,19.4,8.6,30.6C171.7,137.9,156.7,158.8,135.3,167.5z"/>
	</g>
</g>
</svg>
